<svg id="Paratroopers-emblem" xmlns="http://www.w3.org/2000/svg" xmlns:xlink="http://www.w3.org/1999/xlink" width="96.377" height="54.855" viewBox="0 0 96.377 54.855">
  <defs>
    <linearGradient id="linear-gradient" y1="0.5" x2="1" y2="0.5" gradientUnits="objectBoundingBox">
      <stop offset="0" stop-color="#f15a24"/>
      <stop offset="1" stop-color="#e03f20"/>
    </linearGradient>
  </defs>
  <path id="Path_2" data-name="Path 2" d="M1009.05,653.82a35.207,35.207,0,0,1,1.2,3.994,21.783,21.783,0,0,0,8.895.274,33.27,33.27,0,0,0,1.309-4.548A30.407,30.407,0,0,1,1009.05,653.82Z" transform="translate(-925.647 -610.278)" fill="#333"/>
  <path id="Path_1" data-name="Path 1" d="M989.2,575.87a30.572,30.572,0,0,1-16.01,1.068,39.864,39.864,0,0,1,2.436,4.218c4.966.986,9.656.891,13.644-.8A28.08,28.08,0,0,0,989.2,575.87Z" transform="translate(-893.864 -541.439)" fill="#333"/>
  <path id="Path_3" data-name="Path 3" d="M933.806,513.232a27.95,27.95,0,0,0-1.28-4.1,49.272,49.272,0,0,1-9.42,1.085,90.591,90.591,0,0,1-11.775-.6,43.978,43.978,0,0,1,4.24,4.423C923.785,514.99,929.535,514.31,933.806,513.232Z" transform="translate(-839.037 -482.288)" fill="#333"/>
  <path id="Path_4" data-name="Path 4" d="M796.444,407.648a23.029,23.029,0,0,0-9.857-7.658,38.108,38.108,0,0,0-11.391-1,84.092,84.092,0,0,0-12.159,2.274q-1.031.317-2.093.682c-1.137.461-1.434.843-.4,1.035a31.55,31.55,0,0,1,11.029,4.677c2.816.227,8.808.653,13.8.653a92.927,92.927,0,0,0,11.069-.665Z" transform="translate(-704.833 -384.613)" fill="#333"/>
  <path id="orange" d="M371.9,296.628c-10.137-34.585-60.088-25.866-81.569-7.18-18.306,15.918-14.474,33.12-14.474,33.12a6.1,6.1,0,0,0,3.184,4.19,8.588,8.588,0,0,0,7.188.636c4.13-1.621,19.366-46.054,66.893-43.427C357.559,284.216,363.877,286.319,371.9,296.628Z" transform="translate(-275.525 -273.057)" fill="url(#linear-gradient)"/>
</svg>
